# xmcd
#
# Track frame offsets:
#	150
#	21154
#	33817
#	50445
#	64394
#	82520
#	99546
#	117148
#	131777
#	149929
#	167188
#	183606
#	197566
#	213259
#	225635
#
# Disc length: 3210 seconds
#
# Revision: 0
# Processed by: cddbd v1.5.2PL0 Copyright (c) Steve Scherf et al.
# Submitted via: audiograbber 1.83.01
#
DISCID=d30c880f
DTITLE=karaoke - Mixed Country
DYEAR=1900
DGENRE=
TTITLE0=Big and Rich - 8th of November
TTITLE1=Currington, Billy - Why, Why, Why
TTITLE2=Paisley, Brad - The World
TTITLE3=Carolina Rain - Get Outta My Way
TTITLE4=Underwood, Carrie - Don't Forget To Remember Me
TTITLE5=Underwood, Carrie - Jesus, Take The Wheel
TTITLE6=Morgan, Craig - I Got You
TTITLE7=Peck, Danielle - Findin' A Good Man
TTITLE8=Diamond Rio - God Only Cries
TTITLE9=Church, Eric - How 'Bout You
TTITLE10=Hill, Faith - The Lucky One
TTITLE11=Wilson, Gretchen - California Girls
TTITLE12=Messina, Jo Dee - Not Going Down
TTITLE13=Nichols, Joe - Size Matters (Someday)
TTITLE14=Gracin, Josh - Favorite State Of Mind
EXTD=
EXTT0=
EXTT1=
EXTT2=
EXTT3=
EXTT4=
EXTT5=
EXTT6=
EXTT7=
EXTT8=
EXTT9=
EXTT10=
EXTT11=
EXTT12=
EXTT13=
EXTT14=
PLAYORDER=
